<svg xmlns="http://www.w3.org/2000/svg" viewBox="0 0 512 512">
  <defs>
    <linearGradient id="bg" x1="0" y1="0" x2="0" y2="1">
      <stop offset="0" stop-color="#8b5cf6"/>
      <stop offset="1" stop-color="#3b0764"/>
    </linearGradient>
    <radialGradient id="glow" cx="50%" cy="20%" r="60%">
      <stop offset="0" stop-color="#c4b5fd" stop-opacity="0.4"/>
      <stop offset="1" stop-color="#c4b5fd" stop-opacity="0"/>
    </radialGradient>
  </defs>
  <!-- Full bleed for maskable; content within safe zone (>10% inset) -->
  <rect width="512" height="512" fill="url(#bg)"/>
  <rect width="512" height="512" fill="url(#glow)"/>
  <!-- Pixel B: 5x7 grid, pixel=50px, gap=6px, step=56px, startX=119, startY=63 -->
  <!-- Row 0 -->
  <rect x="119" y="63" width="50" height="50" rx="5" fill="white"/>
  <rect x="175" y="63" width="50" height="50" rx="5" fill="white"/>
  <rect x="231" y="63" width="50" height="50" rx="5" fill="white"/>
  <rect x="287" y="63" width="50" height="50" rx="5" fill="white"/>
  <!-- Row 1 -->
  <rect x="119" y="119" width="50" height="50" rx="5" fill="white"/>
  <rect x="287" y="119" width="50" height="50" rx="5" fill="white"/>
  <!-- Row 2 -->
  <rect x="119" y="175" width="50" height="50" rx="5" fill="white"/>
  <rect x="287" y="175" width="50" height="50" rx="5" fill="white"/>
  <!-- Row 3 -->
  <rect x="119" y="231" width="50" height="50" rx="5" fill="white"/>
  <rect x="175" y="231" width="50" height="50" rx="5" fill="white"/>
  <rect x="231" y="231" width="50" height="50" rx="5" fill="white"/>
  <rect x="287" y="231" width="50" height="50" rx="5" fill="white"/>
  <!-- Row 4 -->
  <rect x="119" y="287" width="50" height="50" rx="5" fill="white"/>
  <rect x="343" y="287" width="50" height="50" rx="5" fill="white"/>
  <!-- Row 5 -->
  <rect x="119" y="343" width="50" height="50" rx="5" fill="white"/>
  <rect x="343" y="343" width="50" height="50" rx="5" fill="white"/>
  <!-- Row 6 -->
  <rect x="119" y="399" width="50" height="50" rx="5" fill="white"/>
  <rect x="175" y="399" width="50" height="50" rx="5" fill="white"/>
  <rect x="231" y="399" width="50" height="50" rx="5" fill="white"/>
  <rect x="287" y="399" width="50" height="50" rx="5" fill="white"/>
  <rect x="343" y="399" width="50" height="50" rx="5" fill="white"/>
</svg>